<?xml version="1.0" encoding="UTF-8" standalone="no"?>
<!DOCTYPE svg PUBLIC "-//W3C//DTD SVG 1.1//EN" "http://www.w3.org/Graphics/SVG/1.1/DTD/svg11.dtd">
<svg width="100%" height="100%" viewBox="0 0 1031 1248" version="1.1" xmlns="http://www.w3.org/2000/svg" xmlns:xlink="http://www.w3.org/1999/xlink" xml:space="preserve" xmlns:serif="http://www.serif.com/" style="fill-rule:evenodd;clip-rule:evenodd;stroke-linejoin:round;stroke-miterlimit:2;">
    <rect id="Page-1" serif:id="Page 1" x="0" y="0" width="1030.9" height="1247.6" style="fill:none;"/>
    <g id="Layer-1" serif:id="Layer 1">
        <path d="M785,726.6c13.6,13.6 24.6,28.4 32.5,44.4c25,50.8 15.8,106.7 -34,155.6c-57.1,55.9 -154.2,90.3 -266.9,90.3c-112.7,-0.1 -209.8,-34.5 -266.9,-90.5c-49.7,-48.8 -58.9,-104.8 -33.9,-155.6c7.8,-15.9 18.8,-30.6 32.4,-44.4c-15.9,15.4 -28.5,29 -39.9,51.9c-24.4,48.8 -16.6,118.5 34.8,169c58.5,57.4 149.9,92 274.4,92.1c124.9,0 216.3,-35.5 272.4,-91.9c55,-55.2 57.1,-127.1 34.6,-170.5c-9.4,-18 -22,-34.6 -39.5,-50.3" style="fill:#f60;fill-rule:nonzero;"/>
        <g opacity="0.85">
            <path d="M785,726.6c13.6,13.6 24.6,28.4 32.4,44.3c25,50.8 15.8,106.7 -34,155.6c-57.1,55.9 -154.2,90.3 -266.9,90.3c-112.7,-0.1 -209.8,-34.5 -266.9,-90.5c-49.7,-48.9 -58.9,-104.8 -33.9,-155.6c7.8,-15.9 18.8,-30.6 32.4,-44.4c-15.9,15.4 -28.5,29 -39.9,51.9c-24.4,48.8 -16.6,118.5 34.8,169c58.5,57.4 149.9,92 274.4,92.1c124.9,0 216.3,-35.5 272.4,-91.9c55,-55.2 57.1,-127.1 34.6,-170.5c-9.4,-18 -22,-34.6 -39.5,-50.3Z" style="fill:url(#_Linear1);fill-rule:nonzero;"/>
        </g>
        <path d="M693.5,667.8c-52.8,-21.9 -114.4,-33.2 -176.8,-33.2c-62.5,-0 -124,11.2 -176.9,33.1c-57.8,24 -102.6,59.5 -124,103c-25,50.7 -15.8,106.7 33.9,155.6c57,56 154.1,90.4 266.9,90.5c112.7,0 209.9,-34.4 266.9,-90.3c49.8,-48.8 59,-104.8 34,-155.6c-21.4,-43.5 -66.1,-79.1 -124,-103.1" style="fill:#f60;fill-rule:nonzero;"/>
        <path d="M339.8,667.7c-57.8,24 -102.6,59.5 -124,103c-25,50.7 -15.8,106.7 33.9,155.6c3.5,3.4 7.1,6.8 10.9,10c210,-12.2 319.8,-135 266.6,-244.1c-10.4,-21.3 -8.3,-40.7 -6.1,-57.6c-1.4,-0 -4.5,-0 -4.5,-0c-62.4,-0 -123.9,11.2 -176.7,33.1Z" style="fill:url(#_Linear2);fill-rule:nonzero;"/>
        <path d="M387,852.2c35.2,-25.3 71.2,-49.5 108.1,-72.2c1.1,4.7 2.2,9.4 3.2,14.1c-37.8,18.1 -74.9,37.6 -111.4,58.1m132.7,-87.1c-60.6,0.8 -108,3.5 -167.1,8.6c51,0.2 90.7,2.1 142.5,6.2c8.1,-5 16.3,-10 24.6,-14.9m132.7,87.1c-35.1,-25.4 -71.1,-49.6 -107.9,-72.4c7.5,-0.6 15.1,-1.2 22.6,-1.7c29.3,23.7 57.6,48.5 85.3,74.1m-135.9,-87.1c1.3,42.2 2.8,87 3.2,127.9c7.9,-37.8 16,-75.6 24.8,-113.2c-8.2,-5 -19.6,-9.9 -27.9,-14.7m118.7,-59.6c-31.3,13.8 -61.8,29.2 -91.7,45.8c-1.2,-4.1 -2.4,-8.2 -3.7,-12.3c31.3,-12.5 63.1,-23.8 95.3,-33.5m-115.6,59.6c60.2,0.1 120.4,3.1 180.3,9.2c-52.6,-9.5 -103.7,-16.8 -156.4,-23c-8,4.5 -16,9.1 -23.9,13.8m-115.6,-59.7c31.3,13.8 61.7,29.3 91.5,46c-7.4,0.7 -14.8,1.5 -22.2,2.4c-22.5,-17 -45.5,-33.2 -69.3,-48.3m115.6,59.7c0,-29.2 0,-58.3 0,-87.5c-8.9,24.3 -16.7,49 -24.1,73.8c8.1,4.5 16.1,9 24.1,13.7m-138.4,-69.3c39,9.9 76.1,21.8 113.9,35.7c7.5,-22.4 15.4,-44.7 24.5,-66.6c9.1,21.9 17,44.1 24.5,66.6c37.8,-13.9 74.2,-25.2 113.2,-35.1c-27.5,17.2 -51.7,35 -77.2,55c51.6,6.6 99.9,15.2 150.7,26.2c-50.6,-1.1 -98.3,0.7 -148.9,3.9c35.6,30.2 66.2,59.5 99.3,92.4c-45.4,-26 -88.1,-47.8 -135.4,-70.2c-9.2,39.6 -17.9,79.3 -26.3,119c-8.4,-39.7 -16,-77.6 -25.2,-117.2c-47.3,22.3 -90.4,43.6 -137.4,68.5c33.2,-32.9 64.6,-61.4 100.3,-91.6c-50.6,-3.3 -99.1,-4 -150.9,-4.7c50.8,-11 101,-19.5 152.6,-26.1c-25.4,-20 -50.4,-38.6 -77.8,-55.8" style="fill:#fff;"/>
        <path d="M525.6,1005.2c-1.8,1.3 -4.2,2.6 -6,4c-1.8,-1.3 -4.2,-2.7 -6.1,-4c0,-16.4 -0,-32.8 0,-49.1c1.8,-1.2 4.3,-2.4 6.1,-3.6c1.7,1.2 4.1,2.4 5.9,3.6c0,16.4 0.1,32.8 0.1,49.1" style="fill:#fff;"/>
        <path d="M233.9,886.2c-1,1.8 -1.9,3.7 -2.9,5.5c1.8,0.7 5.3,1.8 6.8,2.4c17.2,-9.2 34.2,-18.3 51.1,-27.1c0.6,-2.6 1,-4 1.8,-6c-1.7,-0.5 -3.5,-0.9 -5.2,-1.4c-17.3,8.6 -34.4,17.4 -51.6,26.5" style="fill:#fff;"/>
        <path d="M221.3,785.4c-1.6,1.2 -3.1,2.5 -4.7,3.8c0.9,1.1 1.8,2.5 2.6,3.6c16.1,-2.3 32.1,-4.2 48.2,-5.9c1.5,-1.4 3.3,-3.2 4.7,-4.5c-0.9,-1 -1.9,-1.9 -2.8,-2.9c-16,1.6 -32,3.6 -48,5.9" style="fill:#fff;"/>
        <path d="M283,704c-1.6,0.7 -3.2,1.4 -4.9,2.1c0.2,1 0.3,2.7 0.5,3.7c11.8,1.7 23.6,3.7 35.4,6c1.5,-0.9 3.6,-2.1 5,-2.9c-0.2,-1 -0.4,-2.1 -0.6,-3.1c-11.8,-2.2 -23.6,-4.2 -35.4,-5.8" style="fill:#fff;"/>
        <path d="M644.4,654c1.5,0 3,0 4.5,0c0.6,0.6 1.2,1.2 1.8,1.8c-6.2,3.9 -12.3,8 -18.3,12.2c-1.6,0 -3.1,0 -4.7,0c-0.6,-0.7 -1.2,-1.3 -1.7,-2c6,-4.2 12.2,-8.3 18.4,-12.1" style="fill:#fff;"/>
        <path d="M515.5,636.9c1.1,-0.3 2.3,-0.7 3.4,-1c1.2,0.3 2.3,0.7 3.4,1c0,4.8 0.1,9.6 0.1,14.5c-1.2,0.4 -2.4,0.8 -3.6,1.2c-1.2,-0.4 -2.3,-0.8 -3.5,-1.2c0,-4.8 0.1,-9.6 0.1,-14.5" style="fill:#fff;"/>
        <path d="M386.1,656.1c0.6,-0.6 1.9,-1.6 2.5,-2.2c1.5,-0 3,-0 4.6,-0.1c6.2,3.9 12.4,7.9 18.4,12.1c-0.6,0.7 -1.2,1.3 -1.8,2c-1.6,-0 -3.8,0.4 -5.4,0.4c-6,-4.2 -12.1,-8.3 -18.3,-12.2" style="fill:#fff;"/>
        <path d="M348.4,975.1c-2.4,0.6 -5.5,0.6 -8,1.2c-0.5,-1.7 -1.7,-3.4 -2.3,-5.2c12,-14.3 24.2,-28.6 36.5,-42.7c2.4,-0.5 5.5,-1 7.9,-1.5c0.6,1.5 1.7,4 2.3,5.4c-12.3,14.2 -24.4,28.4 -36.4,42.8" style="fill:#fff;"/>
        <path d="M801.4,886.4c1,1.8 1.9,3.7 2.9,5.5c-1.8,0.7 -5.2,1.8 -6.8,2.4c-17.2,-9.2 -34.1,-18.3 -51,-27.2c-0.7,-2.6 -1,-4 -1.8,-6c1.7,-0.5 3.5,-0.9 5.2,-1.4c17.3,8.6 34.4,17.4 51.5,26.5" style="fill:#fff;"/>
        <path d="M814.1,785.6c1.6,1.2 3.1,2.5 4.7,3.8c-0.9,1.1 -1.8,2.5 -2.6,3.6c-16.1,-2.3 -32.1,-4.3 -48.2,-5.9c-1.5,-1.4 -3.3,-3.2 -4.7,-4.5c0.9,-1 1.9,-1.9 2.8,-2.9c16,1.7 32,3.6 48,6" style="fill:#fff;"/>
        <path d="M752.5,704.2c1.6,0.7 3.2,1.4 4.9,2.1c-0.1,1 -0.3,2.7 -0.5,3.7c-11.8,1.7 -23.6,3.7 -35.4,5.9c-1.5,-0.9 -3.6,-2.1 -5,-2.9c0.2,-1 0.4,-2.1 0.6,-3.1c11.8,-2.2 23.6,-4.2 35.4,-5.8" style="fill:#fff;"/>
        <path d="M686.9,975.2c2,0.3 5.5,0.8 8,1.2c0.8,-1.7 1.6,-3.4 2.3,-5.2c-12,-14.3 -24.1,-28.6 -36.4,-42.7c-2.4,-0.5 -5.5,-1 -7.9,-1.5c-0.6,1.5 -1.7,4 -2.3,5.4c12.3,14.2 24.4,28.5 36.4,42.9" style="fill:#fff;"/>
        <path d="M515.5,636.9l0,2.5c1.1,-0.3 2.3,-0.7 3.4,-1c1.1,0.3 2.3,0.7 3.4,1l-0,-2.5c-1.1,-0.3 -2.3,-0.7 -3.4,-1c-1.1,0.3 -2.3,0.7 -3.4,1Zm-126.9,16.9c-0.6,0.6 -1.9,1.6 -2.5,2.2c0.5,0.3 1,0.6 1.5,1c0.1,-0.1 1,-0.9 1.1,-1c1.5,-0 3,-0 4.5,-0.1c5.8,3.6 11.3,7.7 16.9,11.5c0.5,-0.5 0.9,-1 1.4,-1.5c-6,-4.2 -12.2,-8.3 -18.4,-12.1c-1.5,0 -3,0 -4.5,0.1Zm237.4,12.3c0.5,0.5 0.9,1 1.4,1.6c5.6,-3.9 11.3,-7.6 17.1,-11.2c1.5,0 3,0 4.5,0c0.1,0.1 0.2,0.2 0.3,0.3c0.5,-0.3 1,-0.7 1.5,-1c-0.6,-0.6 -1.2,-1.2 -1.8,-1.8c-1.5,-0 -3,-0 -4.5,-0c-6.2,3.9 -12.4,7.9 -18.4,12.1Zm-344.3,114c-26.7,118.8 150.7,163.2 236.8,163.2c86.1,0 263.5,-44.2 236.9,-163c-21.4,-95.5 -153.8,-123.9 -236.8,-124l-0.1,0c-83.1,0 -215.4,28.3 -236.8,123.8Zm236.8,155.8c-82.7,-0 -253.1,-42.3 -228.2,-156.5c20.2,-92.3 148.3,-119.6 228.3,-119.5c80,0 208.1,27.5 228.2,119.7c24.9,114.1 -145.4,156.3 -228.2,156.3l-0.1,-0Zm-23.3,-204.5c-37.7,-14 -74.8,-25.8 -113.9,-35.7c1.3,0.8 2.6,1.7 3.9,2.5c37.7,9.8 73.5,21.2 110,34.7c7.5,-22.4 15.4,-44.7 24.5,-66.6c9.1,21.8 17,44.1 24.5,66.6c36.5,-13.4 71.6,-24.4 109.3,-34.1c1.3,-0.8 2.6,-1.7 3.9,-2.5c-39,9.9 -75.5,21.2 -113.2,35.1c-7.5,-22.4 -15.4,-44.7 -24.4,-66.6c-9.1,21.9 -17,44.2 -24.5,66.6Zm-217.1,-25.4c0.1,1.1 0.2,1.5 0.3,2.5c1.3,-0.5 3.4,-1.5 4.6,-2c11.7,1.6 35.6,6.5 35.9,6.3c-0.2,-1 -0.4,-2.1 -0.6,-3.1c-11.8,-2.2 -23.6,-4.2 -35.4,-5.8c-1.6,0.7 -3.2,1.4 -4.9,2.1Zm439,3.9c-0.2,1 -0.4,2.1 -0.6,3.1c0.3,0.1 24.2,-4.7 35.9,-6.3c1.3,0.5 3.4,1.4 4.6,2c0.1,-1 0.2,-1.4 0.3,-2.5c-1.6,-0.7 -3.2,-1.4 -4.9,-2.1c-11.8,1.6 -23.6,3.6 -35.4,5.8Zm-313,-2.8c23.8,15.1 46.8,31.3 69.3,48.3c7.4,-0.8 14.8,-1.6 22.2,-2.4c7.2,4 14,7.8 21.2,11.9c0.8,-0 2.1,-0 2.9,-0c-7.9,-4.6 -16.1,-9.3 -24.1,-13.7c-0.7,0.1 -15.6,1.6 -22.2,2.4c-22.5,-17 -45.5,-33.2 -69.3,-48.3l0,1.8Zm139.5,44.1c0.7,0.1 1.4,0.2 2.2,0.3c29.2,-16.1 58.9,-31.2 89.4,-44.6l-0,-1.5c-31.3,13.8 -61.7,29.2 -91.6,45.8Zm-3.7,-10.8c1.1,3.7 2.2,7.3 3.3,11c0.1,-0.1 0.2,-0.1 0.4,-0.2c-1.2,-4.1 -2.4,-8.2 -3.7,-12.3l0,1.5Zm40.3,12.6c49,6.3 93.9,14 142.2,24.2c2.5,0 6,0.1 8.5,0.2c-50.8,-11 -99.1,-19.6 -150.7,-26.2l-0,1.8Zm-122.7,-1.3c-51,6.5 -100.7,15 -150.9,25.9c2.5,0 5.4,0.2 8,0.1c48.3,-10.2 95.6,-18.2 144.6,-24.4l-0,-1.8l-1.6,0.2Zm62.2,13.2c-0.4,0.2 -17.2,10.3 -24.6,14.8l0.3,1.5c8,-5 16.1,-9.7 24.2,-14.5l0,-1.8Zm0,1.5l0,-1.5l0,1.5Zm0,-1.5c0.4,0.2 2.3,1.4 2.7,1.6c59.4,0.2 118.5,3.2 177.6,9.2l0,-1.6c-59.7,-6 -119.7,-9 -179.7,-9.2c0.2,0 1.9,0 1.9,0c-0.4,0 -2.5,-0 -2.5,-0Zm0.6,0c-0.2,-0 -0.4,-0 -0.6,-0c0.2,0 0.4,0 0.6,0Zm-167.6,8.7l0,1.5c47,-0.3 93.6,2 140.5,6c0.6,-0.4 1.3,-0.9 1.9,-1.3c-44.4,-3.8 -88.6,-6.2 -133,-6.2c-3.1,-0 -6.2,0 -9.4,0Zm-131.5,11.6c-1.6,1.2 -3.1,2.5 -4.7,3.8c0.6,0.8 0.7,1 1.1,1.6c0.9,-0.7 3.2,-2.4 4.1,-3.1c16,-2.3 31.6,-4.3 47.6,-5.9c0.4,0.3 1.2,1.1 1.7,1.6c0.3,-0.4 0.6,-0.6 1,-1c-0.9,-1 -1.9,-1.9 -2.8,-2.9c-16,1.6 -32,3.6 -48,5.9Zm542,-2.9c0.3,0.3 0.6,0.6 1,1c0.4,-0.4 1.3,-1.2 1.7,-1.6c16,1.7 31.7,3.6 47.7,5.9c0.9,0.7 3.2,2.4 4.1,3.1c0.5,-0.6 0.5,-0.8 1.1,-1.6c-1.6,-1.3 -3.1,-2.5 -4.7,-3.8c-16,-2.3 -32,-4.3 -48,-6c-0.9,1 -1.9,1.9 -2.8,2.9Zm-243.6,110.5l-0,1.5c7.9,-37.8 16,-75.3 24.7,-112.9c25.2,15.5 61.7,39.4 108,72.9l0,-2.2c-35.1,-25.4 -71,-49.6 -107.9,-72.4c-8.6,37.2 -17,75.8 -24.8,113.2Zm62.3,-109.3c34.4,29.2 61.9,55.3 93.9,87c1.2,0.7 4.3,2.4 5.4,3.1c-33.7,-33.5 -63.8,-62.2 -97.7,-91l-1.6,-1.4l0,2.4Zm-224.9,90.3c1.2,-0.7 4,-2.3 5.2,-3c32.1,-31.7 60.5,-57.3 95,-86.4l0,-2.2c-35.1,29.8 -67.5,59.2 -100.2,91.6Zm29.9,-21.9l-0,2.1c36.5,-20.5 73.6,-40 111.4,-58.1l0,-2.1c-37.8,18.1 -74.9,37.6 -111.4,58.1Zm-153.1,34.1c-1,1.8 -1.9,3.7 -2.9,5.5c0.4,0.2 0.7,0.3 1.1,0.4c0.4,-0.9 1.2,-2.2 1.6,-3c17.1,-9.1 34.1,-17.6 51.3,-26.2c1.4,0.4 3.3,0.7 4.7,1.1c0.3,-1 0.6,-1.9 1,-2.9c-1.7,-0.5 -3.5,-0.9 -5.2,-1.4c-17.3,8.6 -34.4,17.4 -51.6,26.5Zm510.8,-25c0.4,1 0.6,2 1,2.9c1.4,-0.4 3.3,-0.7 4.6,-1.1c17.3,8.6 34.2,17.1 51.3,26.2c0.4,0.9 1.2,2.2 1.6,3c0.4,-0.1 0.6,-0.2 1.1,-0.4c-1,-1.8 -1.9,-3.7 -2.9,-5.5c-17.1,-9.1 -34.3,-18 -51.5,-26.5c-1.7,0.4 -3.5,0.9 -5.2,1.4Zm-370.1,67.2c-12.3,14.1 -24.5,28.3 -36.5,42.7c0.2,0.6 0.7,1.4 0.9,2c7.7,-9.2 24.4,-29.1 36.5,-42.9c1.9,-0.4 4.5,-0.8 6.5,-1.2c0.7,0.9 1.4,3 2.1,4c0.2,-0.2 0.4,-0.5 0.6,-0.7c-0.2,-0.7 -1.7,-3.9 -2.3,-5.4c-2.4,0.5 -5.5,1 -7.9,1.5Zm275.9,3.9c0.2,0.2 0.4,0.5 0.6,0.7c0.7,-1.1 1.5,-3.1 2.2,-4c2,0.4 4.6,0.8 6.5,1.2c12.1,13.9 28.8,33.8 36.5,43c0.3,-0.7 0.5,-1.4 0.8,-2c-12,-14.3 -24.1,-28.6 -36.4,-42.7c-2.4,-0.5 -5.5,-1 -7.9,-1.5c-0.6,1.5 -2.1,4.7 -2.3,5.4Zm-136.9,23.7l-0,49.1l1.1,-47.4c1.4,-1 3.5,-1.9 4.9,-2.9c1.4,1 3.4,1.9 4.8,2.9l1.1,47.4l-0.1,-49.1c-1.7,-1.2 -4.1,-2.4 -5.9,-3.6c-1.8,1.2 -4.3,2.4 -6.1,3.6Z" style="fill:url(#_Linear3);fill-rule:nonzero;"/>
        <path d="M291.1,782.4c20.2,-92.3 148.3,-119.6 228.2,-119.5c80,0 208.1,27.5 228.2,119.7c24.9,114.2 -145.5,156.3 -228.2,156.3c-82.7,-0 -253.1,-42.3 -228.2,-156.5m-8.7,0.7c21.4,-95.5 148.4,-124.3 236.9,-124.3c88.3,0 215.5,29 236.8,124.5c26.6,118.9 -150.8,163.1 -236.9,163c-86.1,-0 -263.5,-44.4 -236.8,-163.2" style="fill:#fff;"/>
        <g opacity="0.66">
            <path d="M802.1,803l-38.8,-5.9l-5.1,-1.2c-6.5,-1.3 -19,-8.4 -24.4,-16.8c-5.4,-8.4 -18.5,-22.8 -25.6,-31.8c-9.9,-12.5 -32.5,-23.9 -35.8,-29c-3.3,-5.1 -8.8,-14.1 -10.3,-17.7c-1.5,-3.6 -5,-6.5 -10.9,-6.1c-5.9,0.4 -6.4,2.4 -11.4,2.7c-5,0.3 -12,-0.8 -12,-0.8c-3,-0.6 -5.2,-1 -7.3,-1c-3.1,5.1 -7.9,8.3 -19.4,8.3c-0.8,0 -1.5,-0.1 -2,-0.2c1.2,2.6 11.9,4.1 13.8,4c1.8,-0.1 12,2.8 14.3,3.2c4.7,0.9 3.8,-0.8 11.2,3.6c12.4,7.2 31,26.9 34.6,44c2,9.5 18.2,24.9 20.2,33.6c-21.7,-1.6 -50.6,-16 -50.6,-16l-3.6,-1.7c0,0 -12.9,-6.5 -32.7,-7.4c-37.3,-3.4 -51.5,-8.3 -55.2,-9.6c-7.7,-2.6 -6.6,-3.9 -12.9,-4.2c-1.2,-0.1 -2.3,-0.1 -3.4,-0.2c-0.7,1.4 -1.7,2.9 -3.2,4.3c-6.9,6.6 -11.7,11.6 -17.5,20.6c-1.6,2.4 -4.2,3.9 -7.4,4.8c7.1,-1.6 21.1,-5.4 21.1,-5.4c13.2,-1.8 33.2,4.1 33.2,4.1c7.4,1.5 19.6,6.2 19.6,6.2c0,0 53.2,16.3 66.2,25.8c8.6,6.2 52.8,22.8 64.5,26.9c11.7,4.1 40.3,19.6 40.3,19.6c7.3,6.3 50,25 61.8,28.9c15.1,-26.1 20.4,-52.8 16.2,-79.9l-0,-0l-27.4,-5.7Z" style="fill:#3b2e4f;fill-rule:nonzero;"/>
        </g>
        <g opacity="0.66">
            <path d="M782.5,758.7c-3.8,-0 -8.1,1 -8.1,1l-10.6,6.3c-1.3,2.2 3.5,5 3.5,5c0,0 13.4,0.9 13.3,4.4c9.8,5.2 30.8,5.9 41.5,6.4c-1.4,-3.6 -3,-7.2 -4.8,-10.8c-1.7,-3.5 -3.6,-6.8 -5.5,-10.2l-0,0c-0.6,-0.2 -8.7,-2.5 -29.4,-2" style="fill:#3b2e4f;fill-rule:nonzero;"/>
        </g>
        <g opacity="0.66">
            <path d="M703.5,889c0,0 -2.5,-3.3 -16.1,-3.3c-8.6,-0 3.7,20.3 3.7,20.3c7.8,5.2 35.7,13.2 41.5,14c5.8,0.8 25.3,6.6 25.3,6.6c0,0 10.2,1.4 20.6,4.5c1.6,-1.5 3.3,-3 4.9,-4.6c6,-5.9 11.5,-11.9 16.3,-18c-23.6,-0.5 -57,-0.9 -82.4,-14.2c-2.6,-7.6 -13.8,-5.3 -13.8,-5.3" style="fill:#3b2e4f;fill-rule:nonzero;"/>
        </g>
        <path d="M632,518.5c0,0 -7.8,-7.1 -8,-7.5c-0.6,-2.5 2.2,-5.8 2.9,-10c-0.8,-0.3 -1.6,-0.7 -2.4,-1c-1.9,-7.2 -3.5,-20.3 0,-27.3c1.7,-3.4 3.7,-7.9 2.6,-11.9c-6.5,-22.2 -19.3,-41.5 -28.3,-62.5c-2.4,-5.7 -2,-9.8 -2.4,-15.7c-7,-7.7 -15.1,-27.9 -19,-40.3c-8.2,20.6 -13.6,44.2 -13.6,49.7c-0,23.2 23.5,34.4 15.3,72.9c-1.6,7.4 -4.4,17.7 -7.2,28.3c4.9,26.8 4.9,46.3 12,77.4c10,9.9 18.4,22.7 22.9,38.9c2.8,10 11.2,33.6 22,37.1c6.7,2.2 -22.7,7.6 -31,-2.9c-8,-10 -21.8,-18.1 -28.4,-28.8c-5.2,-8.5 -13.4,-26.6 -18.5,-35.3l-6.3,33c8.5,35.2 3.4,43 -4.2,71.6c-3.3,12.4 -28.2,-45.4 -28.2,-49.9c0,-12.6 -0.8,-17.2 -3.7,-28.3c-5.2,-10.2 -4.7,-24.6 -3.9,-35.6c1.2,-18.4 1.1,-53 1.9,-62.1c-6.3,-15.5 -22.4,-43.4 -24,-59.1c-2.5,-24.5 1.6,-49.3 -1.8,-73.7c-4.2,12.2 -8.7,27.7 -18.2,37.1c-14.2,14 -27.4,29.6 -40.1,45c-4.6,6.3 -0.5,9.4 -7.7,19.6c-7.1,10 -3.3,5.5 -4.8,15c-0.3,1.6 -1.1,2.9 -1.6,3.5c-3.8,3.2 -7.8,5.9 -13.2,3.6c-10.5,-5.3 -11.2,-13.1 -11.9,-23.1c-1.4,-19.1 12.8,-20 20.8,-31.6c15.7,-22.7 23.7,-60.8 40.5,-77.9c1.1,-3.4 5,-15.6 12.5,-33.8c0.2,-22.6 5.8,-42.7 29.1,-52c9.5,-3.8 22,-4.8 22.5,-17.9c0.1,-1.6 -0.3,-5.6 -1.3,-7.1c-3.9,-3.1 -6.5,-3.2 -8.4,-5.4c-3.8,-4.8 -6.9,-35.9 -6.4,-37.9c5.5,-26.4 18.1,-35.2 34.1,-34.4c18.9,0.9 33.9,10 33,35.4c-0.7,20.4 -21.8,46.6 9.8,56.6c12.1,3.8 14.3,1.2 24.7,11.6c11.6,11.7 14.4,32.4 16.4,51.6l11.8,27.5c21.7,36.6 13.8,48.1 21.8,85.4c2.1,9.6 5.6,18.2 6.4,39.2c0.4,10 -7.6,32.5 -18.6,32.8" style="fill:#ffa55c;fill-rule:nonzero;"/>
        <path d="M405.6,490.8c1,-9.7 -0.4,-8.9 5.8,-18c5.8,-8.4 3,-12.6 8.1,-19.8c12.5,-15.7 24.4,-31.5 38.5,-45.7c9.4,-9.6 22.2,-41.7 25.2,-53c0.6,-1.7 1.5,-2.5 1.9,-1.1c2,21.6 5,39.5 4.2,60.7c-1.6,44.5 -0.4,39.8 18.1,81.4c1.5,-16.7 5.6,-40.9 15.3,-49.1c-11.4,43.3 -12.1,105 -13.3,124c-0.6,9.7 -3.2,24.9 1.4,33.8c1.6,6 1.7,15.1 1.8,22c0,4.2 0.3,76 0.3,76l-6.7,33.3c-2.4,9.6 -14.8,25.8 -24,30.8c-2.9,1.6 -9.8,5.2 -9.8,8.5c-0,5.3 33.9,15.1 41.6,3.1c5.8,-9 10.6,-13.9 17.5,-20.6c10.7,-10.2 -1.1,-20.8 0.3,-34.6c2.4,-24.1 12.8,-45.1 16.2,-67.9c2.1,-13.7 1.7,-25.8 -4.5,-41.5l4.5,-43.5c5,7.5 9.7,19.4 14.5,29.4c8.5,17.6 8.6,19.4 23.2,33.8c4.9,4.9 10,10.6 13.8,16.5c6.9,11 11.6,21.8 11,34.9c-5.1,9.2 -7.3,8.6 -13.8,14.2c0.2,0.3 -1.8,5.4 4.4,5.4c22.1,0 19.3,-11.5 27.7,-26.4c5.4,-9.7 20.9,-24.3 3.9,-29.4c-5.3,-1.6 -10.3,-4.8 -13.4,-10c-11.8,-19.7 -12.2,-19.2 -18.3,-37.3c-3.7,-11 -11.2,-19.8 -20.1,-27c-5.4,-12.3 -7.6,-21.1 -9.3,-34.2c-2.4,-17.8 -4,-30.5 -7,-48.7c8.6,-34.1 13,-41.4 -1.6,-74.2c-3.4,-7.5 -5.3,-15.6 -5.3,-24.5c0,-10.9 6,-35.4 11.9,-48.1c2,-5.2 4.9,-10 8.9,-11.6c3.6,13.2 15.8,40.5 22.9,47.2c0.4,5.4 0.2,10.8 2.3,15.8c8.9,21.5 21.8,41 28.2,63.7c2.2,7.8 -0.7,11.5 -2.9,17.8c-0.7,3 -0.9,11.7 0.5,18.2l3.1,1.7c-0.5,2 -1.9,7.4 -3,10c0.4,3.1 4.2,4.8 4.2,4.8c4.9,-1.1 11.9,-18.9 11.7,-26c-0.7,-21.8 -5.3,-31.5 -6.6,-38c-7.2,-36.9 -3,-47.1 -23.7,-82.8l-11.8,-29.1c-1.4,-14.9 -7.4,-48.8 -26.4,-54.9c-3.2,-1 -6.4,-1.2 -11.3,-2.8c-24.9,-8.1 -24.9,-27.2 -18.1,-48.2c6.1,-18.6 6.9,-40.6 -20.5,-42.9c-17,-1.4 -22.1,11.9 -25.7,27.3c0.1,1.7 1,26.7 4.6,32c7.2,5.4 11.3,3.8 10.9,17.3c-0.4,11.3 -7.6,18 -17.4,21.5c-15.9,5.6 -24.1,8.9 -29.5,25.3c-1.7,5.2 -3.1,12.6 -3.2,23.6l-0,0.7c-4.6,11.3 -10.3,24.2 -13.8,36.4c-19.6,19.7 -29.4,64.4 -49.3,83.3c-13.2,12.6 -17.2,13.4 -12.4,32.7c0.5,2 6.8,7 8.2,7.7c1,0.4 6.2,-2.7 6.2,-3.8" style="fill:#000faa;fill-rule:nonzero;"/>
    </g>
    <defs>
        <linearGradient id="_Linear1" x1="0" y1="0" x2="1" y2="0" gradientUnits="userSpaceOnUse" gradientTransform="matrix(447.756704,160.77234,-160.77234,447.756704,248.595365,755.216515)"><stop offset="0" style="stop-color:#f60;stop-opacity:1"/><stop offset="1" style="stop-color:#3b2e4f;stop-opacity:1"/></linearGradient>
        <linearGradient id="_Linear2" x1="0" y1="0" x2="1" y2="0" gradientUnits="userSpaceOnUse" gradientTransform="matrix(397.437986,-69.929035,69.929035,397.437986,141.854477,826.798006)"><stop offset="0" style="stop-color:#ffc980;stop-opacity:1"/><stop offset="1" style="stop-color:#f60;stop-opacity:1"/></linearGradient>
        <linearGradient id="_Linear3" x1="0" y1="0" x2="1" y2="0" gradientUnits="userSpaceOnUse" gradientTransform="matrix(602.209027,0.22046,-0.22046,602.209027,216.584492,820.429242)"><stop offset="0" style="stop-color:#b06500;stop-opacity:1"/><stop offset="1" style="stop-color:#7c0000;stop-opacity:1"/></linearGradient>
    </defs>
</svg>
